<?xml version="1.0" encoding="UTF-8" standalone="no"?>
<svg
   xmlns="http://www.w3.org/2000/svg"
   width="533.33331"
   height="533.33331"
>
    <style>
        path {
            fill: white;
        }
        #rect {
            fill: black;
        }

        @media ( prefers-color-scheme: dark ) {
            path {
                fill: black;
            }

            #rect {
                fill: white;
            }
        }
    </style>
    <g>
        <rect
            id="rect"
            width="266.90088"
            height="314.0773"
            x="133.2162"
            y="112.4266"
        />
        <path
            d="M 149.92989,531.22541 C 100.89904,526.9771 67.260714,514.00305 43.770484,490.28052 22.488794,468.78837 11.114444,442.12353 4.9851844,399.35631 c -2.14907,-14.99523 -2.38862,-28.23303 -2.38862,-132 0,-124.12554 0.3078,-130.72263 7.4340396,-159.33332 12.79929,-51.387065 43.62231,-83.483174 92.565956,-96.389215 32.91285,-8.6788531 48.45314,-9.5832631 164.66665,-9.5832631 116.21352,0 131.75381,0.90441 164.66666,9.5832631 48.94364,12.906041 79.76667,45.00215 92.56596,96.389215 7.12624,28.61069 7.43404,35.20778 7.43404,159.33332 0,103.76697 -0.23955,117.00477 -2.38861,132 -6.12927,42.76722 -17.50363,69.43206 -38.78531,90.92421 -23.95528,24.19216 -56.91502,36.69492 -108.15941,41.02852 -18.96624,1.60393 -213.99916,1.53382 -232.66665,-0.0836 z M 296.63152,412.64164 c 43.81652,-5.35701 73.68848,-27.97832 80.71389,-61.12266 3.80988,-17.97417 1.42631,-37.83973 -6.41507,-53.46541 -5.17761,-10.31756 -20.64244,-26.60123 -32.33379,-34.04584 -11.83062,-7.53329 -26.55331,-14.05944 -52.66667,-23.34565 -43.38278,-15.42742 -53.34414,-22.80735 -53.3265,-39.50727 0.012,-11.706 8.50462,-21.26206 22.51914,-25.34009 10.14508,-2.95208 29.50708,-1.97349 36.89831,1.86491 10.40976,5.40594 16.30102,14.10215 18.52386,27.34335 l 0.83936,5 h 33.93957 33.93959 v -5.12005 c 0,-7.29463 -4.53455,-24.05893 -8.76671,-32.4107 -11.09378,-21.89254 -30.87139,-37.0609 -59.95983,-45.98596 -11.21399,-3.44073 -13.48075,-3.66561 -37.27346,-3.69786 -21.55911,-0.0292 -27.02179,0.39137 -36.66666,2.82312 -29.04608,7.32335 -49.95309,20.44179 -62.24738,39.05812 -5.55368,8.40952 -7.98987,15.26628 -9.64044,27.13349 -3.38836,24.36144 4.59504,45.88707 23.62556,63.70154 15.03298,14.07238 33.46317,23.73315 69.89274,36.63655 24.06146,8.5226 35.67625,13.9734 42.05528,19.73648 7.13109,6.44251 9.7784,12.39751 9.82481,22.10046 0.0929,19.44343 -15.32131,29.38518 -42.84391,27.63299 -16.55295,-1.05382 -24.39689,-3.87809 -32.06349,-11.54469 -7.00748,-7.00748 -10.60317,-15.92806 -10.60317,-26.30549 v -5.758 h -34.66666 -34.66667 v 5.24616 c 0,16.14085 9.47135,40.38854 20.77417,53.1842 24.73709,28.00425 71.86352,42.1461 120.59413,36.1883 z"
            id="path106"
        />
    </g>
</svg>
